<svg xmlns="http://www.w3.org/2000/svg" xmlns:xlink="http://www.w3.org/1999/xlink"><defs><clipPath id="logo-a"><path fill="#fff" d="M0 0h44v28.735H0z"/></clipPath></defs><symbol id="icon-basket" viewBox="0 0 24 21"><path d="M18.75 16.5a2.26 2.26 0 0 1 1.594.656 2.26 2.26 0 0 1 0 3.188 2.26 2.26 0 0 1-3.188 0 2.26 2.26 0 0 1-.656-1.594c0-.242.043-.492.129-.75H10.37c.086.258.129.508.129.75a2.259 2.259 0 0 1-.656 1.594 2.258 2.258 0 0 1-3.188 0 2.259 2.259 0 0 1-.316-2.79c.226-.366.539-.644.937-.831L2.215 1.5H0V0h3.293l.996 3H24l-3.492 10.5H7.793l.996 3h9.961ZM4.793 4.5 7.289 12h12.129l2.496-7.5H4.793ZM9 18.75a.72.72 0 0 0-.223-.527A.72.72 0 0 0 8.25 18a.72.72 0 0 0-.527.223.72.72 0 0 0-.223.527.72.72 0 0 0 .223.527.72.72 0 0 0 .527.223.72.72 0 0 0 .527-.223A.72.72 0 0 0 9 18.75Zm9.75.75a.72.72 0 0 0 .527-.223.72.72 0 0 0 .223-.527.72.72 0 0 0-.223-.527.72.72 0 0 0-.527-.223.72.72 0 0 0-.527.223.72.72 0 0 0-.223.527.72.72 0 0 0 .223.527.72.72 0 0 0 .527.223Z"/></symbol><symbol id="icon-beamed-note" viewBox="0 0 20 20"><path d="m17 1-.002 13c0 1.243-1.301 3-3.748 3-1.243 0-2.25-.653-2.25-1.875 0-1.589 1.445-2.55 3-2.55.432 0 .754.059 1 .123V5.364L8 6.637V16h-.002c0 1.243-1.301 3-3.748 3C3.007 19 2 18.347 2 17.125c0-1.589 1.445-2.55 3-2.55.432 0 .754.059 1 .123V3l11-2z"/></symbol><symbol id="icon-bell" viewBox="0 0 20 20"><path d="M14.65 8.512c-2.28-4.907-3.466-6.771-7.191-6.693-1.327.027-1.009-.962-2.021-.587-1.01.375-.143.924-1.177 1.773-2.902 2.383-2.635 4.587-1.289 9.84.567 2.213-1.367 2.321-.602 4.465.559 1.564 4.679 2.219 9.025.607 4.347-1.613 7.086-4.814 6.527-6.378-.765-2.145-2.311-.961-3.272-3.027zm-3.726 8.083c-3.882 1.44-7.072.594-7.207.217-.232-.65 1.253-2.816 5.691-4.463 4.438-1.647 6.915-1.036 7.174-.311.153.429-1.775 3.116-5.658 4.557zm-1.248-3.494c-2.029.753-3.439 1.614-4.353 2.389.643.584 1.847.726 3.046.281 1.527-.565 2.466-1.866 2.095-2.904l-.016-.036c-.251.082-.508.171-.772.27z"/></symbol><symbol id="icon-chat" viewBox="0 0 20 20"><path d="M5.8 12.2V6H2C.9 6 0 6.9 0 8v6c0 1.1.9 2 2 2h1v3l3-3h5c1.1 0 2-.9 2-2v-1.82a.943.943 0 0 1-.2.021h-7V12.2zM18 1H9c-1.1 0-2 .9-2 2v8h7l3 3v-3h1c1.1 0 2-.899 2-2V3c0-1.1-.9-2-2-2z"/></symbol><symbol id="icon-logo" viewBox="0 0 89 32"><path d="M45.266 27.139c0-.276.085-.507.255-.695.175-.193.427-.29.755-.29s.577.097.747.29a.977.977 0 0 1 .264.695c0 .27-.088.498-.264.685-.17.188-.419.281-.747.281s-.58-.093-.756-.28a.984.984 0 0 1-.254-.686Zm10.257-1.662a1.37 1.37 0 0 0-.159-.65c-.1-.205-.307-.39-.624-.554-.31-.17-.78-.316-1.406-.439a11.138 11.138 0 0 1-1.433-.395 4.346 4.346 0 0 1-1.08-.554 2.322 2.322 0 0 1-.677-.765 2.132 2.132 0 0 1-.238-1.028c0-.375.082-.73.246-1.064.17-.334.408-.63.712-.887.31-.258.683-.46 1.117-.607.433-.146.916-.22 1.45-.22.761 0 1.412.135 1.95.405.54.27.953.63 1.24 1.08.287.446.43.941.43 1.486h-1.625c0-.264-.08-.518-.238-.765a1.752 1.752 0 0 0-.676-.623c-.293-.165-.654-.247-1.081-.247-.451 0-.818.07-1.099.211-.275.135-.477.308-.606.519a1.305 1.305 0 0 0-.097 1.143c.064.134.176.26.334.377.158.112.38.217.668.317.287.1.653.199 1.099.299.779.175 1.42.386 1.924.632.504.247.88.548 1.125.906.246.357.37.79.37 1.3a2.535 2.535 0 0 1-1.01 2.04c-.324.246-.71.439-1.161.58a5.181 5.181 0 0 1-1.503.202c-.838 0-1.547-.15-2.127-.448-.58-.3-1.02-.686-1.319-1.16a2.776 2.776 0 0 1-.448-1.504h1.635c.023.446.152.8.386 1.064.235.258.522.442.862.554.34.105.677.158 1.01.158.446 0 .818-.059 1.117-.176.304-.117.536-.278.694-.483a1.12 1.12 0 0 0 .238-.704ZM60.91 14.5V28h-1.626V14.5h1.626Zm-.387 8.385-.676-.027c.005-.65.102-1.25.29-1.801.187-.557.45-1.04.79-1.45a3.526 3.526 0 0 1 2.787-1.293c.469 0 .89.065 1.266.194.374.123.694.322.957.598.27.275.475.632.616 1.072.14.433.21.964.21 1.59V28H65.13v-6.249c0-.498-.073-.896-.22-1.195a1.351 1.351 0 0 0-.641-.66c-.282-.14-.627-.21-1.038-.21-.404 0-.773.084-1.107.254-.328.17-.612.405-.852.704a3.537 3.537 0 0 0-.554 1.028c-.13.38-.194.785-.194 1.213Zm8.245.466v-.203c0-.685.1-1.32.298-1.907.2-.592.487-1.104.862-1.538.375-.44.829-.78 1.362-1.02.533-.245 1.13-.369 1.793-.369.668 0 1.269.123 1.802.37.539.24.996.58 1.37 1.02.382.433.672.945.871 1.537.2.586.299 1.222.299 1.907v.203c0 .685-.1 1.32-.299 1.907-.2.586-.49 1.098-.87 1.538-.375.434-.83.773-1.362 1.02-.528.24-1.125.36-1.793.36-.668 0-1.269-.12-1.802-.36a4.077 4.077 0 0 1-1.371-1.02 4.645 4.645 0 0 1-.862-1.538 5.89 5.89 0 0 1-.298-1.907Zm1.626-.203v.203c0 .474.055.922.166 1.344.112.416.279.785.501 1.108.229.322.513.577.853.764.34.182.735.273 1.187.273.445 0 .835-.091 1.168-.273.34-.187.622-.442.844-.764.223-.323.39-.692.501-1.108.117-.422.176-.87.176-1.344v-.203c0-.468-.059-.91-.176-1.327a3.418 3.418 0 0 0-.51-1.116 2.423 2.423 0 0 0-.843-.773c-.334-.188-.727-.282-1.178-.282-.445 0-.838.094-1.178.282a2.53 2.53 0 0 0-.844.773c-.222.322-.39.694-.5 1.116a5.116 5.116 0 0 0-.167 1.327Zm10.696-2.83v11.338h-1.635V18.49h1.494l.14 1.828Zm6.407 2.848v.185c0 .691-.082 1.333-.246 1.924a4.733 4.733 0 0 1-.72 1.53 3.28 3.28 0 0 1-1.152 1.01c-.457.24-.982.36-1.573.36-.604 0-1.137-.099-1.6-.298-.463-.2-.855-.49-1.178-.87a4.444 4.444 0 0 1-.773-1.371 7.934 7.934 0 0 1-.387-1.802v-.984c.07-.704.202-1.333.396-1.89a4.707 4.707 0 0 1 .764-1.424c.323-.398.712-.7 1.17-.905.456-.211.984-.317 1.581-.317.598 0 1.128.118 1.591.352.463.229.853.557 1.17.984.316.428.553.94.711 1.539a7.4 7.4 0 0 1 .246 1.977Zm-1.635.185v-.185c0-.475-.05-.92-.15-1.336a3.376 3.376 0 0 0-.465-1.107 2.219 2.219 0 0 0-.79-.756c-.323-.188-.707-.281-1.152-.281-.41 0-.768.07-1.073.21-.298.141-.553.331-.764.572a3.03 3.03 0 0 0-.519.808 4.64 4.64 0 0 0-.29.932v2.276c.117.41.281.797.492 1.16.211.358.493.648.844.87.352.217.794.326 1.327.326.44 0 .818-.091 1.134-.273.322-.187.586-.442.791-.764.211-.323.366-.692.466-1.108.1-.422.15-.87.15-1.344Z" fill="#000"/><g clip-path="url(#logo-a)" fill="#000"><path d="M34.107.79H23.492v27.384h6.61v-8.613h4.005c6.21 0 9.816-3.948 9.816-9.385 0-5.437-3.605-9.386-9.816-9.386Zm-.686 12.962h-3.319V6.6h3.32c2.403 0 3.776 1.316 3.776 3.577 0 2.26-1.373 3.576-3.777 3.576ZM12.218 11.692c-2.032-.573-3.32-1-3.95-1.401-.513-.343-.828-.831-.828-1.403 0-1.288 1.03-2.26 3.347-2.26 2.203 0 3.376.944 3.376 2.345h6.638c0-5.122-4.291-8.527-9.7-8.527-3.204 0-5.665.688-7.61 2.347C1.772 4.253.742 6.34.742 8.945c0 2.261.687 3.892 1.746 5.036 1.001 1.087 3.032 2.375 6.209 3.234 2.29.63 3.92 1.116 4.665 1.602.772.486.973.916.973 1.488 0 1.23-1.23 2.06-3.693 2.06-2.29 0-3.519-.859-3.604-2.347H.314c0 5.18 4.235 8.498 10.33 8.498 5.923 0 10.386-3.663 10.386-8.327 0-1.717-.314-3.204-1.545-4.72-1.087-1.373-3.26-2.603-7.267-3.777Z"/></g></symbol><symbol id="icon-PayPal" viewBox="0 0 85 23"><path d="M31.677 4.704h-4.688a.645.645 0 0 0-.423.159.665.665 0 0 0-.22.4l-1.897 12.223a.401.401 0 0 0 .223.422.386.386 0 0 0 .164.036h2.238a.645.645 0 0 0 .423-.159.666.666 0 0 0 .22-.4l.512-3.297a.665.665 0 0 1 .22-.4.645.645 0 0 1 .423-.16h1.484c3.088 0 4.87-1.52 5.336-4.53.21-1.317.009-2.352-.598-3.077-.666-.796-1.848-1.217-3.417-1.217Zm.54 4.464c-.255 1.71-1.54 1.71-2.784 1.71h-.707l.496-3.194a.4.4 0 0 1 .132-.24.387.387 0 0 1 .254-.095h.325c.846 0 1.645 0 2.057.49.246.293.322.728.228 1.329Zm13.473-.055h-2.245a.387.387 0 0 0-.253.095.399.399 0 0 0-.133.24l-.099.639-.157-.232c-.486-.717-1.57-.957-2.651-.957-2.481 0-4.6 1.91-5.013 4.59-.214 1.337.09 2.616.837 3.507.684.82 1.663 1.161 2.827 1.161 2 0 3.108-1.307 3.108-1.307l-.1.634a.405.405 0 0 0 .088.32.393.393 0 0 0 .297.14h2.022a.645.645 0 0 0 .423-.158.665.665 0 0 0 .22-.401l1.214-7.813a.403.403 0 0 0-.088-.32.39.39 0 0 0-.297-.138Zm-3.129 4.442c-.217 1.304-1.234 2.18-2.533 2.18-.652 0-1.173-.213-1.507-.616-.332-.4-.458-.97-.352-1.603.202-1.293 1.237-2.197 2.515-2.197.638 0 1.156.215 1.497.621.342.411.478.984.38 1.615Zm15.086-4.442H55.39a.645.645 0 0 0-.54.29l-3.111 4.66-1.32-4.478a.665.665 0 0 0-.235-.341.646.646 0 0 0-.39-.131H47.58a.385.385 0 0 0-.319.166.4.4 0 0 0-.052.36l2.485 7.414-2.336 3.353a.4.4 0 0 0 .115.57.386.386 0 0 0 .203.057h2.254a.643.643 0 0 0 .535-.284l7.503-11.012a.402.402 0 0 0-.118-.567.386.386 0 0 0-.202-.057Z" fill="#253B80"/><path d="M65.116 4.704h-4.69a.645.645 0 0 0-.422.159.665.665 0 0 0-.22.4l-1.896 12.223a.402.402 0 0 0 .222.422.385.385 0 0 0 .163.036h2.406c.109 0 .214-.04.296-.111a.466.466 0 0 0 .154-.28l.538-3.465a.665.665 0 0 1 .22-.4.645.645 0 0 1 .423-.16h1.483c3.09 0 4.87-1.52 5.337-4.53.21-1.317.008-2.352-.599-3.077-.665-.796-1.846-1.217-3.415-1.217Zm.54 4.464c-.255 1.71-1.54 1.71-2.784 1.71h-.707l.497-3.194a.398.398 0 0 1 .132-.24.386.386 0 0 1 .254-.095h.324c.846 0 1.645 0 2.058.49.246.293.32.728.226 1.329Zm13.472-.055h-2.243a.385.385 0 0 0-.254.095.397.397 0 0 0-.132.24l-.099.638-.158-.23c-.486-.718-1.569-.958-2.65-.958-2.481 0-4.6 1.91-5.012 4.59-.214 1.337.09 2.616.836 3.507.685.82 1.663 1.161 2.827 1.161 2 0 3.108-1.307 3.108-1.307l-.1.634a.403.403 0 0 0 .222.424.386.386 0 0 0 .164.037h2.022a.645.645 0 0 0 .423-.16.665.665 0 0 0 .22-.4l1.214-7.813a.405.405 0 0 0-.09-.32.393.393 0 0 0-.298-.138ZM76 13.555c-.215 1.304-1.234 2.18-2.533 2.18-.65 0-1.173-.213-1.507-.616-.332-.4-.457-.97-.353-1.603.204-1.293 1.238-2.197 2.516-2.197.638 0 1.156.215 1.497.621.344.411.48.984.38 1.615Zm5.776-8.516L79.85 17.486a.402.402 0 0 0 .222.422.385.385 0 0 0 .163.036h1.934a.654.654 0 0 0 .644-.56l1.898-12.222a.404.404 0 0 0-.09-.32.391.391 0 0 0-.296-.139H82.16a.388.388 0 0 0-.253.096.4.4 0 0 0-.132.24Z" fill="#179BD7"/><path d="m4.98 20.32.36-2.316-.8-.019H.728L3.377.9a.221.221 0 0 1 .074-.134.214.214 0 0 1 .142-.052h6.43c2.134 0 3.607.451 4.376 1.343.36.418.59.855.702 1.336.116.504.118 1.107.004 1.843l-.008.053v.471l.36.208c.276.142.523.334.73.566.31.358.509.812.593 1.35.087.555.058 1.214-.084 1.96-.165.86-.43 1.607-.79 2.22a4.538 4.538 0 0 1-1.251 1.393 5.034 5.034 0 0 1-1.685.773c-.621.165-1.33.247-2.106.247h-.5c-.358 0-.706.131-.978.366a1.547 1.547 0 0 0-.51.926l-.038.208-.633 4.081-.03.15c-.007.047-.02.071-.039.087a.106.106 0 0 1-.066.024H4.98Z" fill="#253B80"/><path d="M15.799 5.344c-.02.124-.041.252-.066.383-.848 4.426-3.749 5.956-7.454 5.956H6.393a.921.921 0 0 0-.906.789L4.521 18.7l-.273 1.765a.499.499 0 0 0 .11.395.484.484 0 0 0 .366.172H8.07a.81.81 0 0 0 .795-.69l.033-.172.63-4.065.04-.223a.809.809 0 0 1 .796-.691h.5c3.242 0 5.78-1.339 6.521-5.211.31-1.618.15-2.968-.67-3.918a3.207 3.207 0 0 0-.916-.718Z" fill="#179BD7"/><path d="M14.912 4.984a6.596 6.596 0 0 0-.825-.186 10.308 10.308 0 0 0-1.663-.123h-5.04a.796.796 0 0 0-.522.196.82.82 0 0 0-.272.495L5.518 12.27l-.03.202a.935.935 0 0 1 .308-.565.907.907 0 0 1 .597-.224h1.886c3.705 0 6.606-1.53 7.454-5.956.026-.131.047-.259.066-.383a4.477 4.477 0 0 0-.887-.36Z" fill="#222D65"/><path d="M6.59 5.366a.818.818 0 0 1 .271-.495.794.794 0 0 1 .524-.196h5.04c.596 0 1.154.04 1.662.124.345.055.684.137 1.015.246.25.084.483.184.698.299.252-1.636-.002-2.75-.872-3.758C13.968.476 12.238 0 10.023 0h-6.43a.924.924 0 0 0-.908.79L.007 18.05a.571.571 0 0 0 .125.453.555.555 0 0 0 .42.197h3.97l.996-6.43L6.59 5.366Z" fill="#253B80"/></symbol><symbol id="icon-search" viewBox="0 0 24 24"><path d="M15.75 0a8.15 8.15 0 0 1 4.16 1.125c.61.36 1.164.79 1.664 1.29s.934 1.058 1.301 1.675c.367.617.645 1.273.832 1.969.188.695.285 1.425.293 2.191a8.15 8.15 0 0 1-1.125 4.16c-.36.61-.79 1.164-1.29 1.664s-1.058.934-1.675 1.301a7.809 7.809 0 0 1-1.969.832 8.726 8.726 0 0 1-2.191.293c-.977 0-1.91-.164-2.8-.492a8.606 8.606 0 0 1-2.473-1.418l-9.2 9.187A.72.72 0 0 1 .75 24a.72.72 0 0 1-.527-.223A.72.72 0 0 1 0 23.25a.72.72 0 0 1 .223-.527l9.187-9.2a8.445 8.445 0 0 1-1.418-2.46A8.07 8.07 0 0 1 7.5 8.25a8.15 8.15 0 0 1 1.125-4.16c.36-.61.79-1.164 1.29-1.664s1.058-.934 1.675-1.301a7.81 7.81 0 0 1 1.969-.832A8.727 8.727 0 0 1 15.75 0Zm0 15a6.676 6.676 0 0 0 4.77-1.98 6.95 6.95 0 0 0 1.44-2.145 6.68 6.68 0 0 0 .54-2.625 6.677 6.677 0 0 0-1.98-4.77 6.952 6.952 0 0 0-2.145-1.44 6.681 6.681 0 0 0-2.625-.54 6.676 6.676 0 0 0-4.77 1.98 6.952 6.952 0 0 0-1.44 2.145A6.681 6.681 0 0 0 9 8.25a6.676 6.676 0 0 0 1.98 4.77 6.95 6.95 0 0 0 2.145 1.44 6.68 6.68 0 0 0 2.625.54Z"/></symbol></svg>